<svg width="1080" height="1080" viewBox="0 0 1080 1080" fill="none" xmlns="http://www.w3.org/2000/svg">
<path fill-rule="evenodd" clip-rule="evenodd" d="M384.538 673.296C417.5 650.019 448.915 626.901 481.157 604.613C536.859 566.114 527.89 555.336 588.009 596.825L883.789 805.711C899.734 816.563 926.153 826.74 914.8 857.109C914.622 857.584 914.432 858.041 914.225 858.486C954.849 793.504 978.26 717.118 978.26 635.383C978.26 398.795 782.104 207 540.137 207C298.167 207 102.014 398.795 102.014 635.383C102.014 714.017 135 832 169.5 850C169.352 837.961 169.807 823.417 187.707 811.511C254.387 767.156 318.452 719.974 384.546 673.296H384.538Z" fill="#EEB037"/>
<path fill-rule="evenodd" clip-rule="evenodd" d="M419.848 650.163C445.329 632.167 469.615 614.297 494.539 597.069C537.601 567.308 530.669 558.974 577.142 591.046L805.8 752.527C818.125 760.917 838.551 768.784 829.772 792.261C829.634 792.629 829.49 792.981 829.33 793.326C860.734 743.092 878.83 684.041 878.83 620.855C878.83 437.954 727.189 289.688 540.13 289.688C353.072 289.688 201.43 437.958 201.43 620.855C201.43 681.645 218.184 738.607 247.418 787.573C247.303 778.267 253.838 766.213 267.672 757.011C319.22 722.718 368.746 686.248 419.841 650.16L419.848 650.163Z" fill="#ECA116"/>
<path fill-rule="evenodd" clip-rule="evenodd" d="M459.074 623.967C476.247 611.519 492.615 599.157 509.409 587.24C538.428 566.652 533.755 560.888 565.073 583.075L719.163 694.778C727.471 700.583 741.231 706.024 735.319 722.266C735.226 722.522 735.126 722.766 735.018 723.004C756.182 688.254 768.377 647.408 768.377 603.697C768.377 477.18 666.187 374.616 540.13 374.616C414.073 374.616 311.884 477.177 311.884 603.697C311.884 645.746 323.174 685.15 342.876 719.024C342.798 712.585 347.204 704.251 356.528 697.883C391.267 674.16 424.64 648.932 459.074 623.971V623.967Z" fill="#EC7D16"/>
<path fill-rule="evenodd" clip-rule="evenodd" d="M521.793 871.659C629.042 874.827 740.203 871.337 847.971 871.711C871.594 871.793 907.089 877.724 914.796 857.113C926.149 826.74 899.734 816.563 883.785 805.714L588.006 596.828C527.891 555.336 536.859 566.118 481.158 604.617C448.916 626.904 417.5 650.022 384.539 673.3C318.445 719.981 254.38 767.159 187.7 811.518C139.5 843.584 186 878.5 225.5 849.5C260.294 825.062 290.008 805.302 324.364 780.816C753.233 475.185 356.74 866.786 521.793 871.659Z" fill="#045D63"/>
<mask id="mask0_70_2" style="mask-type:luminance" maskUnits="userSpaceOnUse" x="173" y="570" width="745" height="303">
<path d="M521.793 871.659C629.042 874.827 740.203 871.337 847.971 871.711C871.594 871.793 907.089 877.724 914.796 857.113C926.149 826.74 899.734 816.563 883.785 805.714L588.005 596.828C527.89 555.336 536.859 566.118 481.157 604.617C448.915 626.904 417.5 650.022 384.539 673.3C318.445 719.981 254.38 767.159 187.7 811.518C151 835.933 192.5 876 225.175 851.713C259.969 827.274 290.008 805.302 324.364 780.816C753.233 475.185 356.74 866.786 521.793 871.659Z" fill="white"/>
</mask>
<g mask="url(#mask0_70_2)">
<path d="M540.256 848.412C659.111 848.412 755.462 752.419 755.462 634.007C755.462 515.594 659.111 419.602 540.256 419.602C421.402 419.602 325.051 515.594 325.051 634.007C325.051 752.419 421.402 848.412 540.256 848.412Z" fill="#056D75"/>
<path d="M540.257 796.776C630.487 796.776 703.633 723.902 703.633 634.007C703.633 544.113 630.487 471.239 540.257 471.239C450.026 471.239 376.88 544.113 376.88 634.007C376.88 723.902 450.026 796.776 540.257 796.776Z" fill="#067F88"/>
</g>
<path fill-rule="evenodd" clip-rule="evenodd" d="M540.13 207.004C782.1 207.004 978.253 398.799 978.253 635.387C978.253 717.121 954.842 793.508 914.218 858.489C905.461 877.457 871.045 871.793 847.964 871.711C740.2 871.337 629.038 874.827 521.786 871.66C356.732 866.782 753.226 475.181 324.357 780.812C290.001 805.299 266.794 821.562 232 846C131.594 916.53 102 691.63 102 635.387C102 398.799 298.157 207.004 540.123 207.004H540.13Z" stroke="#ECE3DA" stroke-width="4.00032" stroke-miterlimit="2.61313"/>
</svg>
