<svg width="24" height="24" viewBox="0 0 24 24" fill="none" xmlns="http://www.w3.org/2000/svg">
<path d="M17.8337 5.16632L17.8338 5.16636C19.3484 6.68081 20.2147 8.72496 20.2494 10.8666C20.2841 13.0063 19.486 15.0757 18.0237 16.638L17.8293 16.8391L13.5909 21.0765C13.1871 21.48 12.6451 21.715 12.0745 21.7338C11.5079 21.7524 10.9553 21.5565 10.5271 21.1855L10.4018 21.0681L6.16639 16.8337C6.16636 16.8336 6.16634 16.8336 6.16632 16.8336C4.61918 15.2864 3.75 13.188 3.75 11C3.75 8.81194 4.6192 6.71351 6.16639 5.16632C7.71357 3.61914 9.812 2.74994 12.0001 2.74994C14.1881 2.74994 16.2865 3.61914 17.8337 5.16632ZM12.0001 7.24999C11.5076 7.24999 11.02 7.34699 10.565 7.53545C10.11 7.7239 9.69662 8.00012 9.3484 8.34834C9.00018 8.69656 8.72396 9.10996 8.53551 9.56493C8.34705 10.0199 8.25006 10.5075 8.25006 11C8.25006 11.4925 8.34705 11.9801 8.53551 12.4351C8.72396 12.89 9.00018 13.3034 9.3484 13.6516C9.69662 13.9999 10.11 14.2761 10.565 14.4645C11.02 14.653 11.5076 14.75 12.0001 14.75C12.9946 14.75 13.9484 14.3549 14.6517 13.6516C15.355 12.9484 15.7501 11.9946 15.7501 11C15.7501 10.0054 15.355 9.05161 14.6517 8.34834C13.9484 7.64508 12.9946 7.24999 12.0001 7.24999Z" fill="#C7E0F3" stroke="#6100FD" stroke-width="1.5" stroke-linecap="round" stroke-linejoin="round"/>
</svg>
